<svg xmlns="http://www.w3.org/2000/svg" width="16.33" height="17.011" viewBox="0 0 16.33 17.011"><defs><style>.a{fill:#003a90;}</style></defs><path class="a" d="M46.954,20.292a4.421,4.421,0,0,1,3.955-.3,6.258,6.258,0,0,1,1.811,1.166L55.732,24.3l-1.607,1.6-4.593-4.638A3.414,3.414,0,0,0,46.954,20.292Zm6.634,6.158L51.7,28.275s-.306.431-.561.026l-3.47-3.37s-.306-.406-.536-.051l-3.5,3.548s-.229.355.051.507l3.419,3.4s.281.456.536.1l3.546-3.548s.1-.3.663-.228h3.623a7.831,7.831,0,0,1-2.654,5.93,7.973,7.973,0,0,1-8.65,1.394S39.351,34.306,39.4,28.1a8.14,8.14,0,0,1,3.929-6.361s2.782-2.053,5-.532l5.256,5.245Z" transform="translate(-39.402 -19.693)"/></svg>