<svg xmlns="http://www.w3.org/2000/svg" width="19.708" height="19.708" viewBox="0 0 19.708 19.708"><defs><style>.a{fill:#2f856d;}</style></defs><path class="a" d="M13.963,9.813v2.94l-.041.08-.043.044-.041.082h-.082L13.673,13l-.168.04H11.763V17.68l.374-.085.374-.041.332-.123.333-.082.164-.041.164-.085.334-.123.332-.167.291-.164.332-.167.291-.165.249-.205.29-.208.541-.457.248-.248.207-.25.249-.288.207-.25.209-.288.166-.292.164-.33.168-.289L17.945,13l.123-.332.211-.664.123-.329.041-.374.084-.331.042-.372.041-.744-.041-.58-.041-.292V8.694L18.4,8.117l-.165-.581-.084-.248-.085-.25L17.864,6.5,17.573,6l-.249-.5-.332-.415-.374-.457-.374-.411-.416-.374-.414-.332-.457-.329-.5-.292-.5-.248V9.441l-.041.082-.043.041-.041.082-.082.041h-.084l-.168.042H11.057l-.039.04-.042.043V6.956l.041-.085.041-.08.083-.041h1.122l.165-.042.123-.044.082-.041L12.72,6.5V.207l.828.248.416.125L14.335.7l.416.164.373.21.374.163.332.209L16.2,1.7l.333.205.332.249.291.288.33.292.292.288.539.583.25.328.249.333.205.371.209.332.416.744.165.374.126.414.249.787.123.413.084.416.043.411.082.457v1.365l-.04.5-.041.5-.084.5-.126.456-.123.5-.167.454-.167.418-.205.452-.21.415-.247.416-.249.413-.581.744-.292.374-.331.331-.332.332-.375.29-.372.287-.374.292-.416.249-.414.25-.416.206-.456.205-.414.167-.5.164-.456.126-.457.125-.5.08-.5.044-.5.039-.5.042-.5-.041-.5-.041-.5-.043-.5-.08-.5-.125-.457-.126-.457-.164-.455-.167-.416-.205L6,18.509l-.416-.25-.416-.249-.374-.291-.374-.288-.374-.29-.331-.332-.332-.331-.333-.374-.29-.373-.249-.371-.5-.829-.207-.415-.21-.452-.163-.418-.167-.454-.125-.5-.123-.456-.082-.5-.085-.5-.04-.5V9.4l.04-.413.041-.456.084-.411L1.059,7.7l.082-.413.25-.788.166-.413.164-.374.168-.371L2.1,4.968,2.3,4.636l.249-.371.25-.333L3.05,3.6l.25-.291.289-.292.291-.288.29-.292.665-.5L5.166,1.7,5.5,1.45l.374-.209.372-.163L6.619.868,6.994.7,7.366.58,7.78.455,8.2.33,8.611.207V6.5l.041.082.041.041.125.041.123.044.126.041h1.12l.083.042.082.08V9.812l-.082-.083H7.822l-.167-.041H7.573l-.041-.042-.084-.082-.041-.041V9.441l-.041-.125V2.65l-.5.248-.455.292-.456.329L5.5,3.85l-.414.374-.375.411-.333.457-.332.455L3.756,6l-.25.5-.123.25L3.3,7.037l-.209.539-.125.541-.123.576L2.8,8.984v.292l-.042.58v.371L2.8,10.6l.042.332.042.371.082.374.083.329.123.332.043.167.085.166L3.424,13l.126.332.331.619.416.538.207.292.207.287.25.25.249.248.5.457L6,16.232l.289.205.581.331.333.165.289.167.333.123.333.125.373.084.332.123.332.04.374.085V13.042H7.822L7.655,13l-.041-.043H7.532l-.084-.082-.041-.043v-.08l-.041-.125V9.812l.041.044.041.04.125.085.123.04.126.041h2.365l.083.041.082.082V13h.624V10.267l.041-.082.041-.082.083-.041H13.5l.127-.041.125-.041.123-.084.084-.084ZM9.771.043,10.229,0h.912l.416.044V6.087l-.041.039-.042.085h-.042l-.04.039-.125.041H10.1l-.123-.041-.044-.039H9.854V6.126l-.041-.04L9.771,5.92V.044Z" transform="translate(-0.811)"/></svg>