<svg xmlns="http://www.w3.org/2000/svg" width="19.317" height="19.317" viewBox="0 0 19.317 19.317"><defs><style>.a{fill:#c7162e;}</style></defs><path class="a" d="M6.1,6.9,3.338,13.639H14.306L11.552,6.869,8.822,13.55,6.1,6.9h0Zm10.74,5.128h2.19q-.061.246-.136.489H17.032l-.2-.489Zm-.369-.918H19.21c-.024.163-.053.325-.085.487H16.664l-.2-.487Zm-.369-.918h3.2c-.009.163-.022.325-.037.487H16.3l-.2-.487Zm-.369-.919h3.579c.006.132.008.263.008.4V9.76H15.925l-.2-.488h0Zm-.368-.917h3.866q.033.241.053.487H15.558l-.2-.489h0Zm-.369-.919h4.064c.039.162.072.325.1.489H15.189l-.2-.489h0ZM0,9.667A9.66,9.66,0,0,1,18.946,7H14.822L12.415,1.011l-2.7,6.705L6.962,1.071l-5.1,12.567,2.083,2.93H15.466l1.993-2.989-.255-.635h1.542A9.66,9.66,0,0,1,0,9.667Z" transform="translate(0 -0.007)"/></svg>