<svg xmlns="http://www.w3.org/2000/svg" width="23" height="23" viewBox="0 0 23 23"><defs><style>.a{fill:none;}.b{fill:#666;}</style></defs><g transform="translate(0 0.285)"><rect class="a" width="23" height="23" transform="translate(0 -0.285)"/><path class="b" d="M581.548,609.2h-5.081a.564.564,0,1,1,0-1.128h5.078a.564.564,0,0,1,0,1.128Z" transform="translate(-563.441 -594.876)"/><path class="b" d="M581.548,769.171h-5.081a.564.564,0,0,1,0-1.128h5.078a.564.564,0,0,1,0,1.128Z" transform="translate(-563.441 -752.028)"/><path class="b" d="M101.061,102.754H97.676a1.693,1.693,0,0,1-1.693-1.693V97.677a1.693,1.693,0,0,1,1.693-1.693h3.385a1.693,1.693,0,0,1,1.693,1.693v3.385A1.693,1.693,0,0,1,101.061,102.754Zm-3.385-5.642a.567.567,0,0,0-.564.564v3.385a.567.567,0,0,0,.564.564h3.385a.567.567,0,0,0,.564-.564V97.677a.567.567,0,0,0-.564-.564Z" transform="translate(-91.984 -91.82)"/><path class="b" d="M101.061,102.754H97.676a1.693,1.693,0,0,1-1.693-1.693V97.677a1.693,1.693,0,0,1,1.693-1.693h3.385a1.693,1.693,0,0,1,1.693,1.693v3.385A1.693,1.693,0,0,1,101.061,102.754Zm-3.385-5.642a.567.567,0,0,0-.564.564v3.385a.567.567,0,0,0,.564.564h3.385a.567.567,0,0,0,.564-.564V97.677a.567.567,0,0,0-.564-.564Z" transform="translate(-83.804 -91.82)"/><path class="b" d="M101.061,550.682H97.676a1.693,1.693,0,0,1-1.693-1.693V545.6a1.693,1.693,0,0,1,1.693-1.693h3.385a1.693,1.693,0,0,1,1.693,1.693v3.385A1.7,1.7,0,0,1,101.061,550.682Zm-3.385-5.645a.565.565,0,0,0-.564.564v3.385a.565.565,0,0,0,.564.564h3.385a.565.565,0,0,0,.564-.564V545.6a.565.565,0,0,0-.564-.564Z" transform="translate(-91.984 -531.846)"/></g></svg>