<svg xmlns="http://www.w3.org/2000/svg" width="23" height="23" viewBox="0 0 23 23"><defs><style>.a{fill:none;}.b{fill:#666;}</style></defs><g transform="translate(0 0.285)"><rect class="a" width="23" height="23" transform="translate(0 -0.285)"/><path class="b" d="M22.789,15.546a.474.474,0,0,1-.466-.48V6.842a.486.486,0,0,1,.113-.313L25.97,2.288H16.386l3.244,4.258a.493.493,0,0,1,.1.3v4.91l1.4,1.447a.491.491,0,0,1-.005.679.456.456,0,0,1-.654,0l-1.538-1.589a.486.486,0,0,1-.136-.34V7.009L15.062,2.1a.492.492,0,0,1,.078-.675.458.458,0,0,1,.288-.1H26.984a.453.453,0,0,1,.329.142.49.49,0,0,1,.024.653l-4.082,4.9v8.045a.473.473,0,0,1-.465.48" transform="translate(-10.962 3.711)"/><path class="b" d="M670.459,410.5a.481.481,0,0,1,0-.962h3.6a.481.481,0,0,1,0,.962Zm0,2.974a.481.481,0,0,1,0-.962h3.6a.481.481,0,0,1,0,.962Zm0,3.008a.456.456,0,0,1-.329-.14.486.486,0,0,1-.136-.341.474.474,0,0,1,.466-.48h3.6a.481.481,0,0,1,0,.962h-3.6Z" transform="translate(-656.372 -398.508)"/></g></svg>